M48
; DRILL file KiCad 10.0.5 date 2026-08-11T15:09:31
; FORMAT={-:-/ absolute / inch / decimal}
; #@! TF.CreationDate,2026-08-11T15:09:31-04:00
; #@! TF.GenerationSoftware,Kicad,Pcbnew,10.0.5
; #@! TF.FileFunction,Plated,1,4,PTH
FMAT,2
INCH
; #@! TA.AperFunction,Plated,PTH,ViaDrill
T1C0.0118
; #@! TA.AperFunction,Plated,PTH,ComponentDrill
T2C0.0315
; #@! TA.AperFunction,Plated,PTH,ComponentDrill
T3C0.0394
%
G90
G05
T1
X4.5079Y-4.5079
X4.5669Y-3.6811
X4.5866Y-4.3209
X4.5866Y-4.3898
X4.5965Y-3.6319
X4.6063Y-3.1299
X4.6256Y-4.4256
X4.6415Y-3.8047
X4.6555Y-4.3504
X4.6555Y-4.3996
X4.6749Y-3.8047
X4.7047Y-3.815
X4.7235Y-4.0646
X4.7537Y-3.3071
X4.7537Y-3.3563
X4.7537Y-3.4055
X4.7677Y-3.9409
X4.7677Y-4.1929
X4.7899Y-4.4488
X4.803Y-3.3071
X4.803Y-3.3563
X4.803Y-3.4055
X4.8031Y-4.3209
X4.8127Y-4.0476
X4.8188Y-3.9673
X4.8328Y-4.3507
X4.8522Y-3.3071
X4.8522Y-3.3563
X4.8522Y-3.4055
X4.8524Y-3.9665
X4.8626Y-4.0748
X4.8858Y-4.4488
X4.9114Y-3.8091
X4.9154Y-4.3709
X4.9187Y-4.3396
X5.0305Y-3.8583
X5.0492Y-4.1339
X5.0787Y-4.0157
X5.0846Y-4.1339
X5.0984Y-3.376
X5.1083Y-3.9764
X5.128Y-3.3366
X5.1378Y-3.1299
X5.1378Y-4.2913
X5.1476Y-3.5827
X5.1575Y-4.6161
X5.1575Y-4.6654
X5.1764Y-4.4488
X5.187Y-3.937
T3
X4.7244Y-4.5213
X4.8228Y-4.5213
X4.9016Y-4.5213
X5.0Y-4.5213
T2
G00X4.5811Y-3.8965
M15
G01X4.5654Y-3.8965
M16
G05
G00X4.5811Y-4.2374
M15
G01X4.5654Y-4.2374
M16
G05
G00X4.6339Y-4.5666
M15
G01X4.6339Y-4.6335
M16
G05
G00X4.7516Y-3.8965
M15
G01X4.724Y-3.8965
M16
G05
G00X4.7516Y-4.2374
M15
G01X4.724Y-4.2374
M16
G05
G00X5.0906Y-4.5666
M15
G01X5.0906Y-4.6335
M16
G05
M30
