%TF.GenerationSoftware,KiCad,Pcbnew,10.0.5*%
%TF.CreationDate,2026-08-11T15:09:31-04:00*%
%TF.ProjectId,midea_dongle,6d696465-615f-4646-9f6e-676c652e6b69,rev?*%
%TF.SameCoordinates,Original*%
%TF.FileFunction,Legend,Bot*%
%TF.FilePolarity,Positive*%
%FSLAX46Y46*%
G04 Gerber Fmt 4.6, Leading zero omitted, Abs format (unit mm)*
G04 Created by KiCad (PCBNEW 10.0.5) date 2026-08-11 15:09:31*
%MOMM*%
%LPD*%
G01*
G04 APERTURE LIST*
G04 Aperture macros list*
%AMRoundRect*
0 Rectangle with rounded corners*
0 $1 Rounding radius*
0 $2 $3 $4 $5 $6 $7 $8 $9 X,Y pos of 4 corners*
0 Add a 4 corners polygon primitive as box body*
4,1,4,$2,$3,$4,$5,$6,$7,$8,$9,$2,$3,0*
0 Add four circle primitives for the rounded corners*
1,1,$1+$1,$2,$3*
1,1,$1+$1,$4,$5*
1,1,$1+$1,$6,$7*
1,1,$1+$1,$8,$9*
0 Add four rect primitives between the rounded corners*
20,1,$1+$1,$2,$3,$4,$5,0*
20,1,$1+$1,$4,$5,$6,$7,0*
20,1,$1+$1,$6,$7,$8,$9,0*
20,1,$1+$1,$8,$9,$2,$3,0*%
G04 Aperture macros list end*
%ADD10C,0.150000*%
%ADD11C,0.600000*%
%ADD12O,2.000000X1.200000*%
%ADD13O,1.800000X1.200000*%
%ADD14C,1.000000*%
%ADD15R,1.600000X1.600000*%
%ADD16C,1.600000*%
%ADD17R,1.600000X2.800000*%
%ADD18RoundRect,0.317500X-0.682500X0.317500X-0.682500X-0.317500X0.682500X-0.317500X0.682500X0.317500X0*%
G04 APERTURE END LIST*
D10*
X131663220Y-80759875D02*
X131663220Y-79759875D01*
X131663220Y-79759875D02*
X131329887Y-80474160D01*
X131329887Y-80474160D02*
X130996554Y-79759875D01*
X130996554Y-79759875D02*
X130996554Y-80759875D01*
X130520363Y-80759875D02*
X130520363Y-80093208D01*
X130520363Y-79759875D02*
X130567982Y-79807494D01*
X130567982Y-79807494D02*
X130520363Y-79855113D01*
X130520363Y-79855113D02*
X130472744Y-79807494D01*
X130472744Y-79807494D02*
X130520363Y-79759875D01*
X130520363Y-79759875D02*
X130520363Y-79855113D01*
X129615602Y-80759875D02*
X129615602Y-79759875D01*
X129615602Y-80712256D02*
X129710840Y-80759875D01*
X129710840Y-80759875D02*
X129901316Y-80759875D01*
X129901316Y-80759875D02*
X129996554Y-80712256D01*
X129996554Y-80712256D02*
X130044173Y-80664636D01*
X130044173Y-80664636D02*
X130091792Y-80569398D01*
X130091792Y-80569398D02*
X130091792Y-80283684D01*
X130091792Y-80283684D02*
X130044173Y-80188446D01*
X130044173Y-80188446D02*
X129996554Y-80140827D01*
X129996554Y-80140827D02*
X129901316Y-80093208D01*
X129901316Y-80093208D02*
X129710840Y-80093208D01*
X129710840Y-80093208D02*
X129615602Y-80140827D01*
X128758459Y-80712256D02*
X128853697Y-80759875D01*
X128853697Y-80759875D02*
X129044173Y-80759875D01*
X129044173Y-80759875D02*
X129139411Y-80712256D01*
X129139411Y-80712256D02*
X129187030Y-80617017D01*
X129187030Y-80617017D02*
X129187030Y-80236065D01*
X129187030Y-80236065D02*
X129139411Y-80140827D01*
X129139411Y-80140827D02*
X129044173Y-80093208D01*
X129044173Y-80093208D02*
X128853697Y-80093208D01*
X128853697Y-80093208D02*
X128758459Y-80140827D01*
X128758459Y-80140827D02*
X128710840Y-80236065D01*
X128710840Y-80236065D02*
X128710840Y-80331303D01*
X128710840Y-80331303D02*
X129187030Y-80426541D01*
X127853697Y-80759875D02*
X127853697Y-80236065D01*
X127853697Y-80236065D02*
X127901316Y-80140827D01*
X127901316Y-80140827D02*
X127996554Y-80093208D01*
X127996554Y-80093208D02*
X128187030Y-80093208D01*
X128187030Y-80093208D02*
X128282268Y-80140827D01*
X127853697Y-80712256D02*
X127948935Y-80759875D01*
X127948935Y-80759875D02*
X128187030Y-80759875D01*
X128187030Y-80759875D02*
X128282268Y-80712256D01*
X128282268Y-80712256D02*
X128329887Y-80617017D01*
X128329887Y-80617017D02*
X128329887Y-80521779D01*
X128329887Y-80521779D02*
X128282268Y-80426541D01*
X128282268Y-80426541D02*
X128187030Y-80378922D01*
X128187030Y-80378922D02*
X127948935Y-80378922D01*
X127948935Y-80378922D02*
X127853697Y-80331303D01*
X126615601Y-80759875D02*
X126615601Y-79759875D01*
X126615601Y-79759875D02*
X126282268Y-80474160D01*
X126282268Y-80474160D02*
X125948935Y-79759875D01*
X125948935Y-79759875D02*
X125948935Y-80759875D01*
X125044173Y-80759875D02*
X125044173Y-80236065D01*
X125044173Y-80236065D02*
X125091792Y-80140827D01*
X125091792Y-80140827D02*
X125187030Y-80093208D01*
X125187030Y-80093208D02*
X125377506Y-80093208D01*
X125377506Y-80093208D02*
X125472744Y-80140827D01*
X125044173Y-80712256D02*
X125139411Y-80759875D01*
X125139411Y-80759875D02*
X125377506Y-80759875D01*
X125377506Y-80759875D02*
X125472744Y-80712256D01*
X125472744Y-80712256D02*
X125520363Y-80617017D01*
X125520363Y-80617017D02*
X125520363Y-80521779D01*
X125520363Y-80521779D02*
X125472744Y-80426541D01*
X125472744Y-80426541D02*
X125377506Y-80378922D01*
X125377506Y-80378922D02*
X125139411Y-80378922D01*
X125139411Y-80378922D02*
X125044173Y-80331303D01*
X124710839Y-80093208D02*
X124329887Y-80093208D01*
X124567982Y-79759875D02*
X124567982Y-80617017D01*
X124567982Y-80617017D02*
X124520363Y-80712256D01*
X124520363Y-80712256D02*
X124425125Y-80759875D01*
X124425125Y-80759875D02*
X124329887Y-80759875D01*
X124139410Y-80093208D02*
X123758458Y-80093208D01*
X123996553Y-79759875D02*
X123996553Y-80617017D01*
X123996553Y-80617017D02*
X123948934Y-80712256D01*
X123948934Y-80712256D02*
X123853696Y-80759875D01*
X123853696Y-80759875D02*
X123758458Y-80759875D01*
X123044172Y-80712256D02*
X123139410Y-80759875D01*
X123139410Y-80759875D02*
X123329886Y-80759875D01*
X123329886Y-80759875D02*
X123425124Y-80712256D01*
X123425124Y-80712256D02*
X123472743Y-80617017D01*
X123472743Y-80617017D02*
X123472743Y-80236065D01*
X123472743Y-80236065D02*
X123425124Y-80140827D01*
X123425124Y-80140827D02*
X123329886Y-80093208D01*
X123329886Y-80093208D02*
X123139410Y-80093208D01*
X123139410Y-80093208D02*
X123044172Y-80140827D01*
X123044172Y-80140827D02*
X122996553Y-80236065D01*
X122996553Y-80236065D02*
X122996553Y-80331303D01*
X122996553Y-80331303D02*
X123472743Y-80426541D01*
X122567981Y-80759875D02*
X122567981Y-80093208D01*
X122567981Y-80283684D02*
X122520362Y-80188446D01*
X122520362Y-80188446D02*
X122472743Y-80140827D01*
X122472743Y-80140827D02*
X122377505Y-80093208D01*
X122377505Y-80093208D02*
X122282267Y-80093208D01*
X121187028Y-80759875D02*
X121187028Y-79759875D01*
X121187028Y-79759875D02*
X120948933Y-79759875D01*
X120948933Y-79759875D02*
X120806076Y-79807494D01*
X120806076Y-79807494D02*
X120710838Y-79902732D01*
X120710838Y-79902732D02*
X120663219Y-79997970D01*
X120663219Y-79997970D02*
X120615600Y-80188446D01*
X120615600Y-80188446D02*
X120615600Y-80331303D01*
X120615600Y-80331303D02*
X120663219Y-80521779D01*
X120663219Y-80521779D02*
X120710838Y-80617017D01*
X120710838Y-80617017D02*
X120806076Y-80712256D01*
X120806076Y-80712256D02*
X120948933Y-80759875D01*
X120948933Y-80759875D02*
X121187028Y-80759875D01*
X120044171Y-80759875D02*
X120139409Y-80712256D01*
X120139409Y-80712256D02*
X120187028Y-80664636D01*
X120187028Y-80664636D02*
X120234647Y-80569398D01*
X120234647Y-80569398D02*
X120234647Y-80283684D01*
X120234647Y-80283684D02*
X120187028Y-80188446D01*
X120187028Y-80188446D02*
X120139409Y-80140827D01*
X120139409Y-80140827D02*
X120044171Y-80093208D01*
X120044171Y-80093208D02*
X119901314Y-80093208D01*
X119901314Y-80093208D02*
X119806076Y-80140827D01*
X119806076Y-80140827D02*
X119758457Y-80188446D01*
X119758457Y-80188446D02*
X119710838Y-80283684D01*
X119710838Y-80283684D02*
X119710838Y-80569398D01*
X119710838Y-80569398D02*
X119758457Y-80664636D01*
X119758457Y-80664636D02*
X119806076Y-80712256D01*
X119806076Y-80712256D02*
X119901314Y-80759875D01*
X119901314Y-80759875D02*
X120044171Y-80759875D01*
X119282266Y-80093208D02*
X119282266Y-80759875D01*
X119282266Y-80188446D02*
X119234647Y-80140827D01*
X119234647Y-80140827D02*
X119139409Y-80093208D01*
X119139409Y-80093208D02*
X118996552Y-80093208D01*
X118996552Y-80093208D02*
X118901314Y-80140827D01*
X118901314Y-80140827D02*
X118853695Y-80236065D01*
X118853695Y-80236065D02*
X118853695Y-80759875D01*
X117948933Y-80093208D02*
X117948933Y-80902732D01*
X117948933Y-80902732D02*
X117996552Y-80997970D01*
X117996552Y-80997970D02*
X118044171Y-81045589D01*
X118044171Y-81045589D02*
X118139409Y-81093208D01*
X118139409Y-81093208D02*
X118282266Y-81093208D01*
X118282266Y-81093208D02*
X118377504Y-81045589D01*
X117948933Y-80712256D02*
X118044171Y-80759875D01*
X118044171Y-80759875D02*
X118234647Y-80759875D01*
X118234647Y-80759875D02*
X118329885Y-80712256D01*
X118329885Y-80712256D02*
X118377504Y-80664636D01*
X118377504Y-80664636D02*
X118425123Y-80569398D01*
X118425123Y-80569398D02*
X118425123Y-80283684D01*
X118425123Y-80283684D02*
X118377504Y-80188446D01*
X118377504Y-80188446D02*
X118329885Y-80140827D01*
X118329885Y-80140827D02*
X118234647Y-80093208D01*
X118234647Y-80093208D02*
X118044171Y-80093208D01*
X118044171Y-80093208D02*
X117948933Y-80140827D01*
X117329885Y-80759875D02*
X117425123Y-80712256D01*
X117425123Y-80712256D02*
X117472742Y-80617017D01*
X117472742Y-80617017D02*
X117472742Y-79759875D01*
X116567980Y-80712256D02*
X116663218Y-80759875D01*
X116663218Y-80759875D02*
X116853694Y-80759875D01*
X116853694Y-80759875D02*
X116948932Y-80712256D01*
X116948932Y-80712256D02*
X116996551Y-80617017D01*
X116996551Y-80617017D02*
X116996551Y-80236065D01*
X116996551Y-80236065D02*
X116948932Y-80140827D01*
X116948932Y-80140827D02*
X116853694Y-80093208D01*
X116853694Y-80093208D02*
X116663218Y-80093208D01*
X116663218Y-80093208D02*
X116567980Y-80140827D01*
X116567980Y-80140827D02*
X116520361Y-80236065D01*
X116520361Y-80236065D02*
X116520361Y-80331303D01*
X116520361Y-80331303D02*
X116996551Y-80426541D01*
X131091792Y-82369819D02*
X131425125Y-81893628D01*
X131663220Y-82369819D02*
X131663220Y-81369819D01*
X131663220Y-81369819D02*
X131282268Y-81369819D01*
X131282268Y-81369819D02*
X131187030Y-81417438D01*
X131187030Y-81417438D02*
X131139411Y-81465057D01*
X131139411Y-81465057D02*
X131091792Y-81560295D01*
X131091792Y-81560295D02*
X131091792Y-81703152D01*
X131091792Y-81703152D02*
X131139411Y-81798390D01*
X131139411Y-81798390D02*
X131187030Y-81846009D01*
X131187030Y-81846009D02*
X131282268Y-81893628D01*
X131282268Y-81893628D02*
X131663220Y-81893628D01*
X130663220Y-81846009D02*
X130329887Y-81846009D01*
X130187030Y-82369819D02*
X130663220Y-82369819D01*
X130663220Y-82369819D02*
X130663220Y-81369819D01*
X130663220Y-81369819D02*
X130187030Y-81369819D01*
X129901315Y-81369819D02*
X129567982Y-82369819D01*
X129567982Y-82369819D02*
X129234649Y-81369819D01*
X128187029Y-81465057D02*
X128139410Y-81417438D01*
X128139410Y-81417438D02*
X128044172Y-81369819D01*
X128044172Y-81369819D02*
X127806077Y-81369819D01*
X127806077Y-81369819D02*
X127710839Y-81417438D01*
X127710839Y-81417438D02*
X127663220Y-81465057D01*
X127663220Y-81465057D02*
X127615601Y-81560295D01*
X127615601Y-81560295D02*
X127615601Y-81655533D01*
X127615601Y-81655533D02*
X127663220Y-81798390D01*
X127663220Y-81798390D02*
X128234648Y-82369819D01*
X128234648Y-82369819D02*
X127615601Y-82369819D01*
X127187029Y-82274580D02*
X127139410Y-82322200D01*
X127139410Y-82322200D02*
X127187029Y-82369819D01*
X127187029Y-82369819D02*
X127234648Y-82322200D01*
X127234648Y-82322200D02*
X127187029Y-82274580D01*
X127187029Y-82274580D02*
X127187029Y-82369819D01*
X126520363Y-81369819D02*
X126425125Y-81369819D01*
X126425125Y-81369819D02*
X126329887Y-81417438D01*
X126329887Y-81417438D02*
X126282268Y-81465057D01*
X126282268Y-81465057D02*
X126234649Y-81560295D01*
X126234649Y-81560295D02*
X126187030Y-81750771D01*
X126187030Y-81750771D02*
X126187030Y-81988866D01*
X126187030Y-81988866D02*
X126234649Y-82179342D01*
X126234649Y-82179342D02*
X126282268Y-82274580D01*
X126282268Y-82274580D02*
X126329887Y-82322200D01*
X126329887Y-82322200D02*
X126425125Y-82369819D01*
X126425125Y-82369819D02*
X126520363Y-82369819D01*
X126520363Y-82369819D02*
X126615601Y-82322200D01*
X126615601Y-82322200D02*
X126663220Y-82274580D01*
X126663220Y-82274580D02*
X126710839Y-82179342D01*
X126710839Y-82179342D02*
X126758458Y-81988866D01*
X126758458Y-81988866D02*
X126758458Y-81750771D01*
X126758458Y-81750771D02*
X126710839Y-81560295D01*
X126710839Y-81560295D02*
X126663220Y-81465057D01*
X126663220Y-81465057D02*
X126615601Y-81417438D01*
X126615601Y-81417438D02*
X126520363Y-81369819D01*
X129009875Y-105761905D02*
X128009875Y-105761905D01*
X129009875Y-106809523D02*
X128533684Y-106476190D01*
X129009875Y-106238095D02*
X128009875Y-106238095D01*
X128009875Y-106238095D02*
X128009875Y-106619047D01*
X128009875Y-106619047D02*
X128057494Y-106714285D01*
X128057494Y-106714285D02*
X128105113Y-106761904D01*
X128105113Y-106761904D02*
X128200351Y-106809523D01*
X128200351Y-106809523D02*
X128343208Y-106809523D01*
X128343208Y-106809523D02*
X128438446Y-106761904D01*
X128438446Y-106761904D02*
X128486065Y-106714285D01*
X128486065Y-106714285D02*
X128533684Y-106619047D01*
X128533684Y-106619047D02*
X128533684Y-106238095D01*
X129009875Y-108476190D02*
X129009875Y-108000000D01*
X129009875Y-108000000D02*
X128009875Y-108000000D01*
X128486065Y-108809524D02*
X128486065Y-109142857D01*
X129009875Y-109285714D02*
X129009875Y-108809524D01*
X129009875Y-108809524D02*
X128009875Y-108809524D01*
X128009875Y-108809524D02*
X128009875Y-109285714D01*
X129009875Y-109714286D02*
X128009875Y-109714286D01*
X128009875Y-109714286D02*
X128009875Y-109952381D01*
X128009875Y-109952381D02*
X128057494Y-110095238D01*
X128057494Y-110095238D02*
X128152732Y-110190476D01*
X128152732Y-110190476D02*
X128247970Y-110238095D01*
X128247970Y-110238095D02*
X128438446Y-110285714D01*
X128438446Y-110285714D02*
X128581303Y-110285714D01*
X128581303Y-110285714D02*
X128771779Y-110238095D01*
X128771779Y-110238095D02*
X128867017Y-110190476D01*
X128867017Y-110190476D02*
X128962256Y-110095238D01*
X128962256Y-110095238D02*
X129009875Y-109952381D01*
X129009875Y-109952381D02*
X129009875Y-109714286D01*
X130238866Y-106238095D02*
X130238866Y-107000000D01*
X130238866Y-109000000D02*
X130238866Y-109761905D01*
X130619819Y-109380952D02*
X129857914Y-109380952D01*
X117990124Y-113345238D02*
X118466315Y-113678571D01*
X117990124Y-113916666D02*
X118990124Y-113916666D01*
X118990124Y-113916666D02*
X118990124Y-113535714D01*
X118990124Y-113535714D02*
X118942505Y-113440476D01*
X118942505Y-113440476D02*
X118894886Y-113392857D01*
X118894886Y-113392857D02*
X118799648Y-113345238D01*
X118799648Y-113345238D02*
X118656791Y-113345238D01*
X118656791Y-113345238D02*
X118561553Y-113392857D01*
X118561553Y-113392857D02*
X118513934Y-113440476D01*
X118513934Y-113440476D02*
X118466315Y-113535714D01*
X118466315Y-113535714D02*
X118466315Y-113916666D01*
X118037744Y-112964285D02*
X117990124Y-112821428D01*
X117990124Y-112821428D02*
X117990124Y-112583333D01*
X117990124Y-112583333D02*
X118037744Y-112488095D01*
X118037744Y-112488095D02*
X118085363Y-112440476D01*
X118085363Y-112440476D02*
X118180601Y-112392857D01*
X118180601Y-112392857D02*
X118275839Y-112392857D01*
X118275839Y-112392857D02*
X118371077Y-112440476D01*
X118371077Y-112440476D02*
X118418696Y-112488095D01*
X118418696Y-112488095D02*
X118466315Y-112583333D01*
X118466315Y-112583333D02*
X118513934Y-112773809D01*
X118513934Y-112773809D02*
X118561553Y-112869047D01*
X118561553Y-112869047D02*
X118609172Y-112916666D01*
X118609172Y-112916666D02*
X118704410Y-112964285D01*
X118704410Y-112964285D02*
X118799648Y-112964285D01*
X118799648Y-112964285D02*
X118894886Y-112916666D01*
X118894886Y-112916666D02*
X118942505Y-112869047D01*
X118942505Y-112869047D02*
X118990124Y-112773809D01*
X118990124Y-112773809D02*
X118990124Y-112535714D01*
X118990124Y-112535714D02*
X118942505Y-112392857D01*
X118656791Y-111535714D02*
X117990124Y-111535714D01*
X119037744Y-111773809D02*
X118323458Y-112011904D01*
X118323458Y-112011904D02*
X118323458Y-111392857D01*
X118561553Y-110869047D02*
X118609172Y-110964285D01*
X118609172Y-110964285D02*
X118656791Y-111011904D01*
X118656791Y-111011904D02*
X118752029Y-111059523D01*
X118752029Y-111059523D02*
X118799648Y-111059523D01*
X118799648Y-111059523D02*
X118894886Y-111011904D01*
X118894886Y-111011904D02*
X118942505Y-110964285D01*
X118942505Y-110964285D02*
X118990124Y-110869047D01*
X118990124Y-110869047D02*
X118990124Y-110678571D01*
X118990124Y-110678571D02*
X118942505Y-110583333D01*
X118942505Y-110583333D02*
X118894886Y-110535714D01*
X118894886Y-110535714D02*
X118799648Y-110488095D01*
X118799648Y-110488095D02*
X118752029Y-110488095D01*
X118752029Y-110488095D02*
X118656791Y-110535714D01*
X118656791Y-110535714D02*
X118609172Y-110583333D01*
X118609172Y-110583333D02*
X118561553Y-110678571D01*
X118561553Y-110678571D02*
X118561553Y-110869047D01*
X118561553Y-110869047D02*
X118513934Y-110964285D01*
X118513934Y-110964285D02*
X118466315Y-111011904D01*
X118466315Y-111011904D02*
X118371077Y-111059523D01*
X118371077Y-111059523D02*
X118180601Y-111059523D01*
X118180601Y-111059523D02*
X118085363Y-111011904D01*
X118085363Y-111011904D02*
X118037744Y-110964285D01*
X118037744Y-110964285D02*
X117990124Y-110869047D01*
X117990124Y-110869047D02*
X117990124Y-110678571D01*
X117990124Y-110678571D02*
X118037744Y-110583333D01*
X118037744Y-110583333D02*
X118085363Y-110535714D01*
X118085363Y-110535714D02*
X118180601Y-110488095D01*
X118180601Y-110488095D02*
X118371077Y-110488095D01*
X118371077Y-110488095D02*
X118466315Y-110535714D01*
X118466315Y-110535714D02*
X118513934Y-110583333D01*
X118513934Y-110583333D02*
X118561553Y-110678571D01*
X118990124Y-109583333D02*
X118990124Y-110059523D01*
X118990124Y-110059523D02*
X118513934Y-110107142D01*
X118513934Y-110107142D02*
X118561553Y-110059523D01*
X118561553Y-110059523D02*
X118609172Y-109964285D01*
X118609172Y-109964285D02*
X118609172Y-109726190D01*
X118609172Y-109726190D02*
X118561553Y-109630952D01*
X118561553Y-109630952D02*
X118513934Y-109583333D01*
X118513934Y-109583333D02*
X118418696Y-109535714D01*
X118418696Y-109535714D02*
X118180601Y-109535714D01*
X118180601Y-109535714D02*
X118085363Y-109583333D01*
X118085363Y-109583333D02*
X118037744Y-109630952D01*
X118037744Y-109630952D02*
X117990124Y-109726190D01*
X117990124Y-109726190D02*
X117990124Y-109964285D01*
X117990124Y-109964285D02*
X118037744Y-110059523D01*
X118037744Y-110059523D02*
X118085363Y-110107142D01*
X116665895Y-113249999D02*
X116665895Y-112773809D01*
X116380180Y-113345237D02*
X117380180Y-113011904D01*
X117380180Y-113011904D02*
X116380180Y-112678571D01*
X116903990Y-110488094D02*
X116856371Y-110345237D01*
X116856371Y-110345237D02*
X116808752Y-110297618D01*
X116808752Y-110297618D02*
X116713514Y-110249999D01*
X116713514Y-110249999D02*
X116570657Y-110249999D01*
X116570657Y-110249999D02*
X116475419Y-110297618D01*
X116475419Y-110297618D02*
X116427800Y-110345237D01*
X116427800Y-110345237D02*
X116380180Y-110440475D01*
X116380180Y-110440475D02*
X116380180Y-110821427D01*
X116380180Y-110821427D02*
X117380180Y-110821427D01*
X117380180Y-110821427D02*
X117380180Y-110488094D01*
X117380180Y-110488094D02*
X117332561Y-110392856D01*
X117332561Y-110392856D02*
X117284942Y-110345237D01*
X117284942Y-110345237D02*
X117189704Y-110297618D01*
X117189704Y-110297618D02*
X117094466Y-110297618D01*
X117094466Y-110297618D02*
X116999228Y-110345237D01*
X116999228Y-110345237D02*
X116951609Y-110392856D01*
X116951609Y-110392856D02*
X116903990Y-110488094D01*
X116903990Y-110488094D02*
X116903990Y-110821427D01*
%LPC*%
D11*
%TO.C,J2*%
X119840000Y-100400000D03*
X119840000Y-106200000D03*
D12*
X120340000Y-107630000D03*
D13*
X116160000Y-107630000D03*
X116160000Y-98970000D03*
D12*
X120340000Y-98970000D03*
%TD*%
D14*
%TO.C,J1*%
X121250000Y-116841250D03*
X125750000Y-116841250D03*
D15*
X127000000Y-114841250D03*
D16*
X124500000Y-114841250D03*
X122500000Y-114841250D03*
X120000000Y-114841250D03*
D17*
X129300000Y-116841250D03*
X117700000Y-116841250D03*
%TD*%
D18*
%TO.C,J4*%
X132000000Y-106730000D03*
X132000000Y-109270000D03*
%TD*%
%TO.C,J3*%
X115000000Y-110480000D03*
X115000000Y-113020000D03*
%TD*%
%LPD*%
M02*
