%TF.GenerationSoftware,KiCad,Pcbnew,10.0.5*%
%TF.CreationDate,2026-08-11T15:09:31-04:00*%
%TF.ProjectId,midea_dongle,6d696465-615f-4646-9f6e-676c652e6b69,rev?*%
%TF.SameCoordinates,Original*%
%TF.FileFunction,Copper,L4,Bot*%
%TF.FilePolarity,Positive*%
%FSLAX46Y46*%
G04 Gerber Fmt 4.6, Leading zero omitted, Abs format (unit mm)*
G04 Created by KiCad (PCBNEW 10.0.5) date 2026-08-11 15:09:31*
%MOMM*%
%LPD*%
G01*
G04 APERTURE LIST*
G04 Aperture macros list*
%AMRoundRect*
0 Rectangle with rounded corners*
0 $1 Rounding radius*
0 $2 $3 $4 $5 $6 $7 $8 $9 X,Y pos of 4 corners*
0 Add a 4 corners polygon primitive as box body*
4,1,4,$2,$3,$4,$5,$6,$7,$8,$9,$2,$3,0*
0 Add four circle primitives for the rounded corners*
1,1,$1+$1,$2,$3*
1,1,$1+$1,$4,$5*
1,1,$1+$1,$6,$7*
1,1,$1+$1,$8,$9*
0 Add four rect primitives between the rounded corners*
20,1,$1+$1,$2,$3,$4,$5,0*
20,1,$1+$1,$4,$5,$6,$7,0*
20,1,$1+$1,$6,$7,$8,$9,0*
20,1,$1+$1,$8,$9,$2,$3,0*%
G04 Aperture macros list end*
%TA.AperFunction,ComponentPad*%
%ADD10O,2.000000X1.200000*%
%TD*%
%TA.AperFunction,ComponentPad*%
%ADD11O,1.800000X1.200000*%
%TD*%
%TA.AperFunction,ComponentPad*%
%ADD12R,1.600000X1.600000*%
%TD*%
%TA.AperFunction,ComponentPad*%
%ADD13C,1.600000*%
%TD*%
%TA.AperFunction,ComponentPad*%
%ADD14R,1.600000X2.800000*%
%TD*%
%TA.AperFunction,SMDPad,CuDef*%
%ADD15RoundRect,0.317500X-0.682500X0.317500X-0.682500X-0.317500X0.682500X-0.317500X0.682500X0.317500X0*%
%TD*%
%TA.AperFunction,ViaPad*%
%ADD16C,0.600000*%
%TD*%
%TA.AperFunction,Conductor*%
%ADD17C,0.200000*%
%TD*%
G04 APERTURE END LIST*
D10*
%TO.P,J2,1,SHIELD_1*%
%TO.N,GND*%
X120340000Y-107630000D03*
D11*
%TO.P,J2,2,SHIELD_2*%
X116160000Y-107630000D03*
%TO.P,J2,3,SHIELD_3*%
X116160000Y-98970000D03*
D10*
%TO.P,J2,4,SHIELD_4*%
X120340000Y-98970000D03*
%TD*%
D12*
%TO.P,J1,1,VBUS_1*%
%TO.N,/+5V_UART*%
X127000000Y-114841250D03*
D13*
%TO.P,J1,2,D-_2*%
%TO.N,/UART_RX_5V*%
X124500000Y-114841250D03*
%TO.P,J1,3,D+_3*%
%TO.N,/UART_TX_5V*%
X122500000Y-114841250D03*
%TO.P,J1,4,GND_4*%
%TO.N,GND*%
X120000000Y-114841250D03*
D14*
%TO.P,J1,5,Shield_5*%
X129300000Y-116841250D03*
%TO.P,J1,6,Shield_6*%
X117700000Y-116841250D03*
%TD*%
D15*
%TO.P,J4,1,Pin_1_1*%
%TO.N,Net-(J4-Pin_1)*%
X132000000Y-106730000D03*
%TO.P,J4,2,Pin_2_2*%
%TO.N,+3.3V*%
X132000000Y-109270000D03*
%TD*%
%TO.P,J3,1,Pin_1_1*%
%TO.N,Net-(J3-Pin_1)*%
X115000000Y-110480000D03*
%TO.P,J3,2,Pin_2_2*%
%TO.N,Net-(J3-Pin_2)*%
X115000000Y-113020000D03*
%TD*%
D16*
%TO.N,/RS485_RO*%
X130250000Y-84750000D03*
X117894900Y-96640000D03*
%TO.N,GND*%
X127775000Y-98000000D03*
X114500000Y-114500000D03*
X120745000Y-84000000D03*
X122000000Y-109750000D03*
X131480000Y-113000000D03*
X121995000Y-85250000D03*
X124934545Y-110225222D03*
X129150000Y-105000000D03*
X123245000Y-84000000D03*
X121100000Y-106500000D03*
X129000000Y-102000000D03*
X121995000Y-86500000D03*
X130500000Y-79500000D03*
X121995000Y-84000000D03*
X121100000Y-100100000D03*
X120745000Y-86500000D03*
X123510000Y-103500000D03*
X116500000Y-109750000D03*
X117000000Y-79500000D03*
X123245000Y-86500000D03*
X123245000Y-85250000D03*
X120745000Y-85250000D03*
%TO.N,/RS485_DE*%
X118743427Y-96640000D03*
X116500000Y-111500000D03*
X130750000Y-91000000D03*
X117490735Y-112410735D03*
%TO.N,/RS485_DI*%
X119500000Y-96900000D03*
X129500000Y-85750000D03*
%TO.N,Net-(J3-Pin_2)*%
X118250000Y-111750000D03*
%TO.N,Net-(J3-Pin_1)*%
X118250000Y-110500000D03*
%TO.N,+3.3V*%
X131000000Y-118500000D03*
X130500000Y-109000000D03*
%TO.N,Net-(D3-K)*%
X131000000Y-117250000D03*
X129750000Y-101000000D03*
%TO.N,Net-(J2-D--PadA7)*%
X122241821Y-102809928D03*
X123250000Y-100750000D03*
%TO.N,Net-(J2-D+-PadA6)*%
X119975657Y-103241886D03*
X122398745Y-100768918D03*
%TO.N,/UART_RX_5V*%
X122752983Y-110508949D03*
%TO.N,/UART_RX*%
X116000000Y-93500000D03*
X121663662Y-113000000D03*
%TO.N,/UART_TX*%
X124100002Y-113000000D03*
X116750000Y-92250000D03*
%TO.N,/UART_TX_5V*%
X124850000Y-111020744D03*
%TO.N,Net-(J4-Pin_1)*%
X131750000Y-100000000D03*
%TO.N,/CHIP_PU*%
X128250000Y-105000000D03*
X124750000Y-96750000D03*
%TD*%
%TO.N,/RS485_RO*%
D17*
X129000000Y-84750000D02*
X130250000Y-84750000D01*
X117894900Y-95855100D02*
X129000000Y-84750000D01*
X117894900Y-96640000D02*
X117894900Y-95855100D01*
%TO.N,/RS485_DE*%
X119750000Y-97500000D02*
X126250000Y-91000000D01*
X119251471Y-97500000D02*
X119750000Y-97500000D01*
X116500000Y-111500000D02*
X116580000Y-111500000D01*
X126250000Y-91000000D02*
X130750000Y-91000000D01*
X116580000Y-111500000D02*
X117490735Y-112410735D01*
X118743427Y-96640000D02*
X118900000Y-96796573D01*
X118900000Y-97148529D02*
X119251471Y-97500000D01*
X118900000Y-96796573D02*
X118900000Y-97148529D01*
%TO.N,/RS485_DI*%
X129500000Y-85750000D02*
X119500000Y-95750000D01*
X119500000Y-95750000D02*
X119500000Y-96900000D01*
%TO.N,Net-(J3-Pin_2)*%
X117730000Y-113020000D02*
X118250000Y-112500000D01*
X115000000Y-113020000D02*
X117730000Y-113020000D01*
X118250000Y-112500000D02*
X118250000Y-111750000D01*
%TO.N,Net-(J3-Pin_1)*%
X118230000Y-110480000D02*
X118250000Y-110500000D01*
X115000000Y-110480000D02*
X118230000Y-110480000D01*
%TO.N,+3.3V*%
X130770000Y-109270000D02*
X130500000Y-109000000D01*
X132000000Y-109270000D02*
X132500000Y-109770000D01*
X132500000Y-109770000D02*
X132500000Y-117000000D01*
X132000000Y-109270000D02*
X130770000Y-109270000D01*
X132500000Y-117000000D02*
X131000000Y-118500000D01*
%TO.N,Net-(D3-K)*%
X131000000Y-115000000D02*
X131000000Y-117250000D01*
X129750000Y-101000000D02*
X129750000Y-113750000D01*
X129750000Y-113750000D02*
X131000000Y-115000000D01*
%TO.N,Net-(J2-D--PadA7)*%
X122900000Y-101098681D02*
X122900000Y-101665686D01*
X122241821Y-102323865D02*
X122241821Y-102809928D01*
X122900000Y-101665686D02*
X122241821Y-102323865D01*
X123250000Y-100750000D02*
X123248681Y-100750000D01*
X123248681Y-100750000D02*
X122900000Y-101098681D01*
%TO.N,Net-(J2-D+-PadA6)*%
X122398745Y-100768918D02*
X122500000Y-100870173D01*
X120758114Y-103241886D02*
X119975657Y-103241886D01*
X122500000Y-100870173D02*
X122500000Y-101500000D01*
X122500000Y-101500000D02*
X120758114Y-103241886D01*
%TO.N,/UART_RX_5V*%
X124750000Y-112505966D02*
X124750000Y-114591250D01*
X122752983Y-110508949D02*
X124750000Y-112505966D01*
X124750000Y-114591250D02*
X124500000Y-114841250D01*
%TO.N,/UART_RX*%
X121663662Y-113000000D02*
X121663662Y-112844971D01*
X121663662Y-112844971D02*
X117646371Y-108827680D01*
X116000000Y-96750000D02*
X116000000Y-93500000D01*
X117646371Y-98396371D02*
X116000000Y-96750000D01*
X117646371Y-108827680D02*
X117646371Y-98396371D01*
%TO.N,/UART_TX*%
X124100002Y-113000000D02*
X124037208Y-113000000D01*
X116750000Y-96343629D02*
X116750000Y-92250000D01*
X118046371Y-107009163D02*
X118046371Y-97640000D01*
X124037208Y-113000000D02*
X118046371Y-107009163D01*
X118046371Y-97640000D02*
X116750000Y-96343629D01*
%TO.N,/UART_TX_5V*%
X125073443Y-116000000D02*
X123658750Y-116000000D01*
X124850000Y-111020744D02*
X125750000Y-111920744D01*
X123658750Y-116000000D02*
X122500000Y-114841250D01*
X125750000Y-115323443D02*
X125073443Y-116000000D01*
X125750000Y-111920744D02*
X125750000Y-115323443D01*
%TO.N,Net-(J4-Pin_1)*%
X131750000Y-106480000D02*
X132000000Y-106730000D01*
X131750000Y-100000000D02*
X131750000Y-106480000D01*
%TO.N,/CHIP_PU*%
X128250000Y-105000000D02*
X128250000Y-100250000D01*
X128250000Y-100250000D02*
X124750000Y-96750000D01*
%TD*%
M02*
